<svg id="svg" xmlns="http://www.w3.org/2000/svg" xmlns:xlink="http://www.w3.org/1999/xlink" width="400" height="123" viewBox="0, 0, 400,123"><g id="svgg"><path id="path0" d="M84.701 4.712 C 81.569 5.704,79.323 8.031,78.273 11.372 L 77.500 13.833 77.500 41.333 L 77.500 68.833 78.237 70.785 C 80.753 77.448,81.623 77.651,107.750 77.660 L 127.667 77.667 127.667 74.500 L 127.667 71.333 111.917 71.332 C 90.880 71.330,93.000 73.010,93.000 56.350 L 93.000 44.667 106.500 44.667 C 113.925 44.667,120.000 44.596,120.000 44.509 C 120.000 44.422,119.157 42.097,118.126 39.342 L 116.252 34.333 104.626 34.333 L 93.000 34.333 93.000 22.985 L 93.000 11.636 93.818 10.818 L 94.636 10.000 110.152 10.000 L 125.667 10.000 125.667 7.000 L 125.667 4.000 106.250 4.019 C 87.706 4.037,86.738 4.068,84.701 4.712 M147.878 4.518 C 135.222 7.032,128.520 15.676,130.004 27.570 C 130.877 34.576,135.335 39.232,147.333 45.672 C 159.278 52.083,162.160 55.028,162.164 60.833 C 162.171 69.739,153.801 72.958,136.167 70.830 C 133.967 70.564,132.054 70.344,131.917 70.340 C 131.295 70.323,131.651 75.617,132.285 75.818 C 135.675 76.894,147.385 77.845,153.557 77.546 C 169.985 76.750,178.635 68.802,177.910 55.169 C 177.410 45.773,172.689 40.290,158.833 33.013 C 145.764 26.150,143.009 22.920,144.870 16.644 C 146.558 10.954,154.534 8.928,169.250 10.451 L 172.000 10.736 172.000 7.868 C 172.000 6.291,171.963 5.000,171.917 4.999 C 171.871 4.999,169.733 4.776,167.167 4.503 C 161.368 3.887,151.012 3.895,147.878 4.518 M225.035 4.712 C 219.225 6.552,217.948 9.678,217.769 22.500 L 217.643 31.500 223.101 35.154 L 228.559 38.808 223.098 42.321 L 217.638 45.833 217.759 57.333 C 217.977 78.099,217.342 77.662,247.250 77.665 L 265.667 77.667 265.667 74.500 L 265.667 71.333 251.083 71.332 C 231.444 71.330,233.333 72.944,233.333 56.177 L 233.333 44.667 246.667 44.667 C 257.112 44.667,260.000 44.576,259.998 44.250 C 259.997 44.021,259.203 41.733,258.234 39.167 L 256.472 34.500 244.903 34.412 L 233.333 34.325 233.333 22.981 L 233.333 11.636 234.152 10.818 L 234.970 10.000 250.485 10.000 L 266.000 10.000 266.000 7.000 L 266.000 4.000 246.583 4.019 C 228.039 4.037,227.071 4.068,225.035 4.712 M281.500 4.467 C 273.483 7.009,273.256 8.118,273.402 44.000 C 273.550 80.542,270.923 77.660,304.083 77.664 L 323.667 77.667 323.667 74.500 L 323.667 71.333 307.917 71.332 C 286.909 71.330,289.000 73.005,289.000 56.177 L 289.000 44.667 302.500 44.667 C 309.925 44.667,316.000 44.551,316.000 44.409 C 316.000 44.267,315.573 43.030,315.051 41.659 C 314.528 40.288,313.690 38.079,313.188 36.750 L 312.275 34.333 300.625 34.333 L 288.975 34.333 289.071 22.804 L 289.167 11.274 289.954 10.637 C 290.703 10.030,291.478 10.000,306.204 10.000 L 321.667 10.000 321.667 7.000 L 321.667 4.000 302.250 4.022 C 287.542 4.039,282.510 4.147,281.500 4.467 M189.000 41.306 L 189.000 77.667 196.667 77.667 L 204.333 77.667 204.333 46.583 L 204.333 15.500 196.950 10.333 C 192.890 7.492,189.440 5.117,189.284 5.056 C 189.128 4.994,189.000 21.307,189.000 41.306 M147.667 90.000 C 147.667 90.664,147.889 90.667,199.333 90.667 C 250.778 90.667,251.000 90.664,251.000 90.000 C 251.000 89.336,250.778 89.333,199.333 89.333 C 147.889 89.333,147.667 89.336,147.667 90.000 M173.145 108.083 C 168.958 117.874,168.797 118.184,167.583 118.777 C 165.258 119.913,165.917 120.333,170.024 120.333 C 173.360 120.333,173.705 120.277,173.605 119.750 C 173.539 119.403,173.134 119.125,172.605 119.064 C 170.973 118.874,170.854 118.272,171.955 115.772 L 172.956 113.500 177.052 113.500 L 181.148 113.500 182.094 115.775 C 183.129 118.264,182.984 119.000,181.459 119.000 C 180.889 119.000,180.667 119.187,180.667 119.667 C 180.667 120.300,180.889 120.333,185.167 120.333 C 188.985 120.333,189.667 120.256,189.667 119.823 C 189.667 119.542,189.404 119.229,189.083 119.126 C 186.925 118.436,186.966 118.501,183.948 111.167 C 182.817 108.417,181.378 104.967,180.751 103.500 C 180.125 102.033,179.385 100.196,179.108 99.417 C 178.139 96.693,177.815 97.164,173.145 108.083 M237.167 98.554 C 234.776 99.814,233.667 101.493,233.667 103.850 C 233.667 106.924,234.829 108.232,240.245 111.255 C 244.857 113.829,246.059 116.003,243.899 117.862 C 241.086 120.281,236.011 118.376,235.044 114.538 C 234.270 111.462,233.667 112.540,233.667 117.000 C 233.667 120.963,234.178 122.397,234.844 120.301 C 235.086 119.537,234.957 119.530,238.761 120.516 C 243.933 121.855,248.000 119.170,248.000 114.415 C 248.000 111.438,246.911 110.189,241.924 107.447 C 236.848 104.656,235.870 103.530,236.857 101.622 C 238.747 97.966,244.790 100.141,245.547 104.750 C 246.031 107.700,246.667 106.139,246.667 102.000 C 246.667 97.936,246.438 97.277,245.478 98.583 C 245.070 99.139,244.971 99.139,243.397 98.583 C 241.360 97.864,238.500 97.851,237.167 98.554 M149.333 99.000 C 149.333 99.532,149.556 99.667,150.433 99.667 C 152.333 99.667,152.333 99.670,152.333 109.359 C 152.333 118.965,152.356 118.844,150.503 119.054 C 149.876 119.125,149.465 119.383,149.395 119.750 C 149.294 120.284,149.697 120.333,154.167 120.333 C 158.636 120.333,159.040 120.284,158.938 119.750 C 158.869 119.383,158.458 119.125,157.830 119.054 C 156.109 118.859,156.000 118.578,156.000 114.336 L 156.000 110.419 157.573 110.713 C 166.137 112.313,169.797 101.298,161.523 98.825 C 158.730 97.990,149.333 98.125,149.333 99.000 M193.333 98.974 C 193.333 99.518,193.543 99.667,194.310 99.667 C 196.292 99.667,196.333 99.863,196.333 109.212 C 196.333 118.628,196.263 119.000,194.488 119.000 C 193.556 119.000,193.333 119.128,193.333 119.667 C 193.333 120.302,193.556 120.333,198.000 120.333 C 202.444 120.333,202.667 120.302,202.667 119.667 C 202.667 119.163,202.443 118.999,201.750 118.995 C 199.972 118.985,199.842 118.688,199.722 114.346 L 199.611 110.333 200.604 110.333 C 201.502 110.333,201.946 110.816,205.211 115.333 L 208.824 120.333 211.912 120.333 C 214.706 120.333,215.000 120.274,215.000 119.710 C 215.000 119.259,214.685 119.036,213.860 118.902 C 212.030 118.605,211.113 117.779,208.310 113.907 C 205.207 109.618,205.295 110.024,207.264 109.082 C 211.453 107.076,211.485 101.667,207.320 99.333 C 205.159 98.122,193.333 97.819,193.333 98.974 M218.333 99.000 C 218.333 99.515,218.556 99.667,219.310 99.667 C 221.292 99.667,221.333 99.863,221.333 109.212 C 221.333 118.628,221.263 119.000,219.488 119.000 C 218.556 119.000,218.333 119.128,218.333 119.667 C 218.333 120.302,218.556 120.333,223.000 120.333 C 227.444 120.333,227.667 120.302,227.667 119.667 C 227.667 119.163,227.443 118.999,226.750 118.995 C 224.797 118.984,224.833 119.167,224.833 109.333 C 224.833 99.500,224.797 99.683,226.750 99.672 C 227.443 99.668,227.667 99.504,227.667 99.000 C 227.667 98.365,227.444 98.333,223.000 98.333 C 218.556 98.333,218.333 98.365,218.333 99.000 M204.865 101.026 C 208.059 103.677,206.091 108.097,201.506 108.570 L 199.667 108.760 199.667 104.567 L 199.667 100.374 200.917 100.270 C 202.479 100.141,204.194 100.469,204.865 101.026 M160.027 100.902 C 163.707 103.076,162.179 109.000,157.938 109.000 L 156.000 109.000 156.000 104.667 L 156.000 100.333 157.532 100.333 C 158.377 100.333,159.495 100.588,160.027 100.902 M178.765 107.750 L 180.270 111.333 177.135 111.333 C 175.411 111.333,174.000 111.272,174.000 111.196 C 174.000 111.121,174.539 109.808,175.198 108.280 C 175.857 106.751,176.537 105.142,176.708 104.704 C 177.102 103.694,176.996 103.536,178.765 107.750 " stroke="none" fill="#000000" fill-rule="evenodd"></path></g></svg>